<?xml version="1.0" standalone="no"?>
<!DOCTYPE svg PUBLIC "-//W3C//DTD SVG 20010904//EN"
 "http://www.w3.org/TR/2001/REC-SVG-20010904/DTD/svg10.dtd">
<svg version="1.0" xmlns="http://www.w3.org/2000/svg"
 width="260.000000pt" height="260.000000pt" viewBox="0 0 260.000000 260.000000"
 preserveAspectRatio="xMidYMid meet">
<metadata>
Created by potrace 1.11, written by Peter Selinger 2001-2013
</metadata>
<g transform="translate(0.000000,260.000000) scale(0.100000,-0.100000)"
fill="#000000" stroke="none">
<path d="M147 2524 c-4 -4 -7 -89 -7 -190 l0 -182 73 -6 c39 -4 97 -7 127 -9
l55 -2 5 -1028 5 -1027 265 265 265 265 205 0 c236 0 409 13 530 40 365 80
638 299 736 592 30 90 64 278 64 353 0 146 -58 390 -117 493 -127 221 -336
354 -648 414 -104 20 -149 21 -830 25 -396 2 -724 1 -728 -3z m1411 -463 c261
-66 349 -199 340 -511 -4 -108 -9 -146 -26 -190 -48 -121 -133 -207 -251 -256
-112 -45 -181 -55 -438 -61 l-243 -6 0 525 c0 289 2 527 4 529 2 2 123 1 268
-2 221 -6 276 -10 346 -28z"/>
</g>
</svg>
