<svg id="Layer_6" data-name="Layer 6" xmlns="http://www.w3.org/2000/svg" viewBox="0 0 132.14 114"><defs><style>.cls-1{fill:#f64576;}</style></defs><title>modeling</title><path class="cls-1" d="M354.13,221.75l-4.75-11.62L347,216.75,329,211V165l-38.88-16.68L290,125h6l-8-9-7.87,9h6l-0.18,23.32L247,165v46l-17.94,5.75-2.34-6.62L222,221.75l10.89,5.5L230.75,221l19.31-6L288,230l38-15,19.38,6-2.12,6.25ZM285,224l-34-13V170l34,13v41Zm-30.25-57.91L288,152l33.25,14.09L288,179ZM325,211l-34,13V183l34-13v41Z" transform="translate(-221.98 -116)"/></svg>