<svg id="Layer_2" data-name="Layer 2" xmlns="http://www.w3.org/2000/svg" viewBox="0 0 110 88"><defs><style>.cls-1{fill:#f44676;}</style></defs><title>web</title><path class="cls-1" d="M212.44,137H107.56c-1.16,0-2.56.24-2.56,1.46V211c0,1.22,1.4,3,2.56,3h41.12s-0.26,7.08-1.75,7.75c-1.65.74-4,1-4,2s-0.32,1.29.63,1.29h32.81c0.95,0,.63-0.35.63-1.35s-2.32-1.1-4-1.83c-1.49-.67-1.75-7.81-1.75-7.81h41.12c1.16,0,2.56-1.74,2.56-3V138.46C215,137.24,213.6,137,212.44,137ZM211,195.6c0,0.91-.39,2.4-1.26,2.4H110.26c-0.86,0-1.26-1.49-1.26-2.4V141.9c0-.91.39-0.9,1.26-0.9h99.48c0.86,0,1.26,0,1.26.9v53.7Z" transform="translate(-105 -137)"/></svg>