<?xml version="1.0" encoding="utf-8"?>
<!-- Generator: Adobe Illustrator 19.2.1, SVG Export Plug-In . SVG Version: 6.00 Build 0)  -->
<svg version="1.1" xmlns="http://www.w3.org/2000/svg" xmlns:xlink="http://www.w3.org/1999/xlink" x="0px" y="0px"
	 viewBox="0 0 492.4 81" style="enableBackground:new 0 0 492.4 81;" xml:space="preserve">
<style type="text/css">
	.st0{fill:#1C2947;}
	.st1{fill:#EF2B63;}
</style>
<g id="Layer_2">
	<g>
		<path class="st0" d="M91.3,19v37.4l5.1,0.3v7.1H75.2V57l2.9-0.3c1.7-0.2,2.6-1.1,2.6-2.8V29.2c0-1-0.2-1.7-0.5-2
			c-0.3-0.4-0.9-0.5-1.7-0.5l-3.1-0.2V19H91.3z M80.1,11.3c-1.2-1.2-1.9-2.8-1.9-4.7c0-1.9,0.6-3.5,1.9-4.8C81.3,0.6,82.9,0,85,0
			c2,0,3.7,0.6,4.9,1.9c1.3,1.3,1.9,2.9,1.9,4.8c0,1.9-0.6,3.5-1.9,4.7c-1.3,1.2-2.9,1.8-4.9,1.8C82.9,13.2,81.3,12.6,80.1,11.3z"/>
		<path class="st0" d="M127,54.4l-5.4-7.1l-7.4,9.2l4.2,0.3v7.1H99.8v-7l2.8-0.3c1.4-0.2,2.6-0.9,3.6-2.1l10.2-12.8l-10.9-15.1
			l-4.5-0.5V19h20.7v7l-2.6,0.2c-0.7,0.1-1.2,0.3-1.4,0.8c-0.2,0.5-0.1,1,0.3,1.5l5.1,6.8l6.9-8.9l-3.6-0.3V19h18.1V26l-2.7,0.2
			c-1.2,0.1-2.4,0.8-3.6,2.2l-9.8,12.4L140,56.2l4.5,0.5v7h-21.2v-7l2.8-0.2c0.8-0.1,1.2-0.3,1.4-0.8
			C127.6,55.4,127.4,54.9,127,54.4z"/>
		<path class="st0" d="M171.4,17.7c4.5,0,8,1.1,10.6,3.2c2.6,2.2,3.9,5.2,3.9,9.1c0,2.6-0.6,4.9-1.7,6.9c-1.1,2-2.5,3.5-4.2,4.7
			c-1.7,1.1-3.7,2-6.1,2.8c-4,1.2-8.5,1.8-13.4,1.8c0.2,3.1,1.2,5.7,2.9,7.6c1.8,1.9,4.5,2.9,8.2,2.9c3.7,0,7.4-1.3,11-3.9l3.4,7.2
			c-1.2,1.1-3.2,2.2-6,3.3c-2.8,1.1-6,1.7-9.7,1.7c-7.2,0-12.5-2-15.9-6c-3.4-4-5.1-9.5-5.1-16.5c0-7,1.9-12.9,5.8-17.6
			C159,20.1,164.4,17.7,171.4,17.7z M167.3,38c2.2-0.4,4.2-1.2,6-2.6c1.8-1.3,2.8-2.9,2.8-4.8c0-3.6-1.8-5.4-5.3-5.4
			c-3.3,0-5.9,1.3-7.7,4c-1.8,2.6-2.8,5.8-2.9,9.5C162.8,38.7,165.2,38.4,167.3,38z"/>
		<path class="st0" d="M208,0.4v56.1l5.1,0.3v7.1h-21.2V57l2.9-0.3c1.7-0.2,2.6-1.1,2.6-2.8V10.1c0-1.3-0.7-2-2.2-2.1l-3.1-0.2V0.4
			H208z"/>
		<path class="st0" d="M258.6,20.8v33.1c0,0.9,0.2,1.6,0.5,2c0.3,0.4,0.9,0.6,1.7,0.6l2.8,0.2v7.1h-14.2v-5.2l-0.3-0.1
			c-3,4.3-7,6.4-12.2,6.4c-6.1,0-10.5-1.9-13.4-5.8c-2.9-3.9-4.4-9.1-4.4-15.8c0-8.1,2-14.4,5.9-18.9c3.9-4.5,9.8-6.8,17.6-6.8
			C247.8,17.7,253.1,18.8,258.6,20.8z M248.3,49.7V26.6c-1.7-0.8-3.9-1.2-6.9-1.2c-4,0-6.9,1.6-8.6,4.8c-1.8,3.2-2.7,7.4-2.7,12.7
			c0,9.6,3.1,14.4,9.3,14.4c2.6,0,4.7-0.8,6.4-2.4C247.4,53.5,248.3,51.7,248.3,49.7z"/>
		<path class="st0" d="M277.2,9.6h5.8V19h11.8l-0.9,7.5H283v23.4c0,2.6,0.5,4.4,1.4,5.5c0.9,1,2.4,1.6,4.4,1.6c2,0,4-0.6,6-1.9
			l2.7,6.9c-3,2.1-6.7,3.1-11.3,3.1c-2.7,0-4.9-0.3-6.8-1c-1.8-0.7-3.2-1.4-4.1-2.3c-0.9-0.8-1.6-2-2-3.6c-0.5-1.6-0.7-2.9-0.8-3.8
			c-0.1-0.9-0.1-2.3-0.1-4V26.5h-6.3L267,20c2.8-0.2,4.9-1.2,6.3-3C274.7,15.3,276,12.8,277.2,9.6z"/>
		<path class="st0" d="M323.2,17.7c4.4,0,8,1.1,10.6,3.2c2.6,2.2,3.9,5.2,3.9,9.1c0,2.6-0.6,4.9-1.7,6.9c-1.1,2-2.5,3.5-4.2,4.7
			c-1.7,1.1-3.7,2-6.1,2.8c-4,1.2-8.5,1.8-13.4,1.8c0.2,3.1,1.2,5.7,2.9,7.6c1.8,1.9,4.5,2.9,8.2,2.9c3.7,0,7.4-1.3,11-3.9l3.4,7.2
			c-1.2,1.1-3.2,2.2-6,3.3c-2.8,1.1-6,1.7-9.7,1.7c-7.2,0-12.5-2-15.9-6s-5.1-9.5-5.1-16.5c0-7,1.9-12.9,5.8-17.6
			C310.9,20.1,316.3,17.7,323.2,17.7z M319.2,38c2.2-0.4,4.2-1.2,6-2.6c1.8-1.3,2.8-2.9,2.8-4.8c0-3.6-1.8-5.4-5.3-5.4
			c-3.3,0-5.9,1.3-7.7,4c-1.8,2.6-2.8,5.8-2.9,9.5C314.6,38.7,317,38.4,319.2,38z"/>
		<path class="st0" d="M359.9,0.4v56.1l5.1,0.3v7.1h-21.2V57l2.9-0.3c1.7-0.2,2.6-1.1,2.6-2.8V10.1c0-1.3-0.7-2-2.2-2.1l-3.1-0.2
			V0.4H359.9z"/>
		<path class="st0" d="M386.6,19v37.4l5.1,0.3v7.1h-21.2V57l2.9-0.3c1.7-0.2,2.6-1.1,2.6-2.8V29.2c0-1-0.2-1.7-0.5-2
			c-0.3-0.4-0.9-0.5-1.7-0.5l-3.1-0.2V19H386.6z M375.4,11.3c-1.2-1.2-1.9-2.8-1.9-4.7c0-1.9,0.6-3.5,1.9-4.8
			c1.2-1.3,2.9-1.9,4.9-1.9c2,0,3.7,0.6,4.9,1.9c1.3,1.3,1.9,2.9,1.9,4.8c0,1.9-0.6,3.5-1.9,4.7c-1.3,1.2-2.9,1.8-4.9,1.8
			C378.2,13.2,376.6,12.6,375.4,11.3z"/>
		<path class="st0" d="M419.1,17.7c4.4,0,8,1.1,10.6,3.2c2.6,2.2,3.9,5.2,3.9,9.1c0,2.6-0.6,4.9-1.7,6.9c-1.1,2-2.5,3.5-4.2,4.7
			c-1.7,1.1-3.7,2-6.1,2.8c-4,1.2-8.5,1.8-13.4,1.8c0.2,3.1,1.2,5.7,2.9,7.6c1.8,1.9,4.5,2.9,8.2,2.9c3.7,0,7.4-1.3,11-3.9l3.4,7.2
			c-1.2,1.1-3.2,2.2-6,3.3c-2.8,1.1-6,1.7-9.7,1.7c-7.2,0-12.5-2-15.9-6s-5.1-9.5-5.1-16.5c0-7,1.9-12.9,5.8-17.6
			C406.8,20.1,412.2,17.7,419.1,17.7z M415.1,38c2.2-0.4,4.2-1.2,6-2.6c1.8-1.3,2.8-2.9,2.8-4.8c0-3.6-1.8-5.4-5.3-5.4
			c-3.3,0-5.9,1.3-7.7,4c-1.8,2.6-2.8,5.8-2.9,9.5C410.5,38.7,412.9,38.4,415.1,38z"/>
		<path class="st0" d="M445.4,53.8V29.2c0-0.9-0.2-1.6-0.5-2c-0.3-0.4-0.9-0.6-1.7-0.7l-3.7-0.3V19h15v6.7c1.1-2.3,2.7-4.2,5-5.7
			c2.3-1.5,4.9-2.3,7.8-2.3c2.9,0,5.7,0.7,8.4,2v13.3l-8.3,0.6v-4.1c0-1.2-0.3-1.9-0.9-2.2c-0.7-0.3-1.5-0.4-2.4-0.4
			c-2.4,0-4.3,0.8-5.8,2.5c-1.5,1.7-2.3,3.8-2.3,6.5v20.6l7.7,0.4v7h-23.9V57l2.9-0.3c0.9-0.1,1.5-0.4,2-0.8
			C445.2,55.6,445.4,54.9,445.4,53.8z"/>
	</g>
	<rect x="478.4" y="50.4" class="st1" width="14" height="14"/>
</g>
<g id="Layer_3">
</g>
<g id="Layer_1">
	<g>
		<path class="st1" d="M7.4,81V20.4L0,20V8.9h37.3c9.7,0,17.3,2.3,22.7,6.8c5.4,4.6,8.1,11.4,8.1,20.5S65,52.5,58.9,57.6
			c-6.2,5.1-14.3,7.6-24.5,7.6H23.3 M23.3,52.6h9.4c12.7,0,19-5.2,19-15.5c0-6.3-1.6-10.4-4.9-12.4c-3.3-2-8.4-3.1-15.6-3.1h-7.9
			V52.6z"/>
	</g>
</g>
<g id="Layer_4">
</g>
</svg>
